<svg version="1.1" xmlns="http://www.w3.org/2000/svg" xmlns:xlink="http://www.w3.org/1999/xlink" width="500" height="500" viewBox="0 0 500 500"><path d="M 126 83 C 126 83 126 83 126 83 C 126 83 123.32 83 122 83 C 119.69 83 117.31 83 115 83 C 113.02 83 110.98 83 109 83 C 106.36 83 103.64 83 101 83 C 99.02 83 96.98 83 95 83 C 92.69 83 90.31 83 88 83 C 87.01 83 85.985 82.902 85 83 C 83.325 83.165 81.591 83.453 80 84 C 79.302 84.239 78.598 84.568 78 85 C 77.621 85.272 77.33 85.67 77 86 C 76.67 86.33 76.178 86.568 76 87 C 75.873 87.304 76 87.67 76 88 C 76 88.99 76.12 90.017 76 91 C 75.833 92.35 75.166 93.649 75 95 C 74.798 96.637 75 98.35 75 100 C 75 101.98 75 104.02 75 106 C 75 106.99 75 108.01 75 109 C 75 113.95 75 119.05 75 124 C 75 124.99 75 126.01 75 127 C 75 130.63 75 134.37 75 138 C 75 140.97 75 144.03 75 147 C 75 149.97 75 153.03 75 156 C 75 159.3 74.817 162.705 75 166 C 75.165 168.983 75.589 172.04 76 175 C 76.275 176.988 76.693 179.016 77 181 C 77.356 183.306 77.643 185.693 78 188 C 78.306 189.983 78.638 192.025 79 194 C 79.303 195.655 79.834 197.325 80 199 C 80.097 199.985 80 201.01 80 202 C 80 202.99 79.841 204.022 80 205 C 80.167 206.03 80.832 206.969 81 208 C 81.158 208.977 81 210.01 81 211 C 81 212.32 81 213.68 81 215 C 81 215.66 81 216.34 81 217 C 81 217.66 81 218.34 81 219 C 81 219.33 81 220 81 220 C 81 220 81 220 81 220 C 81 220 81 221 81 221 C 81 221 81 221 81 221 C 81 221 81 222 81 222 C 81 222 81 222 81 222 C 81 222 81 223.34 81 224 C 81 224.99 81 226.01 81 227 C 81 228.98 81 231.02 81 233 C 81 234.65 81 236.35 81 238 C 81 240.31 81 242.69 81 245 C 81 245.99 81 247.01 81 248 C 81 248.99 81.158 250.022 81 251 C 80.832 252.03 80.167 252.969 80 254 C 79.894 254.651 80.252 255.39 80 256 C 79.821 256.431 79.272 256.621 79 257 C 78.568 257.598 78 259 78 259 C 78 259 78 259 78 259 C 78 259 77 260 77 260 C 77 260 77 260 77 260 C 77 260 76.233 259.766 76 260 C 75.766 260.233 76.233 260.766 76 261 C 75.766 261.233 75.33 261 75 261 C 74.67 261 74.33 261 74 261 C 73.67 261 73 261 73 261 C 73 261 73 261 73 261 C 73 261 73 261 73 261 C 73 261 72 261 72 261 C 72 261 72 261 72 261 C 72 261 72 261 72 261 C 72 261 72 261 72 261 C 72 261 71 261 71 261 " fill="transparent" stroke="#222" stroke-width="23" stroke-opacity="1" fill-opacity="1" class="" visibility="visible" stroke-linecap="round" stroke-linejoin="round" stroke-miterlimit="4" id="two-29"></path><path d="M 26 194 C 26 194 26.67 194 27 194 C 27.66 194 28.34 194 29 194 C 32.96 194 37.04 194 41 194 C 44.63 194 48.37 194 52 194 C 54.64 194 57.36 194 60 194 C 62.64 194 65.36 194 68 194 C 70.64 194 73.36 194 76 194 C 78.64 194 81.36 194 84 194 C 85.32 194 86.68 194 88 194 C 89.65 194 91.35 194 93 194 C 93.99 194 95.01 194 96 194 C 96.66 194 97.34 194 98 194 C 98.99 194 100.01 194 101 194 C 102.32 194 103.68 194 105 194 C 105.66 194 106.34 194 107 194 C 107.99 194 109.01 194 110 194 C 110.66 194 112 194 112 194 C 112 194 112 194 112 194 C 112 194 112.67 194 113 194 C 113.33 194 113.67 194 114 194 C 114.66 194 115.34 194 116 194 C 116.33 194 116.67 194 117 194 C 117.33 194 117.695 194.126 118 194 C 118.431 193.821 119 193 119 193 C 119 193 119 193 119 193 C 119 193 118 193 118 193 " fill="transparent" stroke="#222" stroke-width="23" stroke-opacity="1" fill-opacity="1" class="" visibility="visible" stroke-linecap="round" stroke-linejoin="round" stroke-miterlimit="4" id="two-31"></path><path d="M 238 222 C 238 222 238 220.66 238 220 C 238 218.68 238.505 217.219 238 216 C 237.464 214.706 235.933 214.043 235 213 C 233.59 211.425 232.409 209.574 231 208 C 229.443 206.261 227.892 204.364 226 203 C 224.204 201.705 221.914 201.111 220 200 C 218.97 199.402 218.088 198.481 217 198 C 215.755 197.449 214.32 197.33 213 197 C 211.68 196.67 210.327 196.298 209 196 C 207.358 195.63 205.626 195.431 204 195 C 202.991 194.732 202.03 194.167 201 194 C 199.697 193.788 198.32 194 197 194 C 195.35 194 193.65 194 192 194 C 191.01 194 189.963 193.772 189 194 C 188.281 194.169 187.598 194.568 187 195 C 185.864 195.818 184.99 197.01 184 198 C 183.34 198.66 182.66 199.34 182 200 C 181.34 200.66 180.66 201.34 180 202 C 178.68 203.32 177.027 204.441 176 206 C 175.021 207.483 174.574 209.318 174 211 C 173.222 213.273 172.777 215.726 172 218 C 171.425 219.681 170.611 221.331 170 223 C 169.282 224.959 168.616 227.006 168 229 C 167.289 231.295 166.333 233.62 166 236 C 165.816 237.307 166 238.68 166 240 C 166 241.65 166 243.35 166 245 C 166 246.32 165.838 247.689 166 249 C 166.166 250.35 166.527 251.723 167 253 C 167.256 253.692 167.629 254.361 168 255 C 168.597 256.029 169.477 256.931 170 258 C 170.458 258.937 170.366 260.17 171 261 C 171.722 261.945 173.079 262.245 174 263 C 175.082 263.887 175.809 265.263 177 266 C 177.887 266.548 179.01 266.67 180 267 C 180.99 267.33 182.035 267.6 183 268 C 183.681 268.282 184.281 268.83 185 269 C 185.963 269.227 187.01 269 188 269 C 188.66 269 189.368 269.191 190 269 C 191.138 268.655 192.028 267.687 193 267 C 194.346 266.047 195.561 264.808 197 264 C 198.549 263.129 200.407 262.789 202 262 C 203.723 261.144 205.374 260.028 207 259 C 209.01 257.727 211.218 256.578 213 255 C 215.277 252.982 216.932 250.232 219 248 C 220.585 246.287 222.635 244.892 224 243 C 224.862 241.802 225.395 240.346 226 239 C 226.728 237.378 227.172 235.572 228 234 C 228.553 232.946 229.655 232.138 230 231 C 230.191 230.368 229.848 229.642 230 229 C 230.169 228.281 231 227 231 227 C 231 227 231 227 231 227 C 231 227 231 227 231 227 C 231 227 231.821 226.431 232 226 C 232.252 225.39 231.747 224.609 232 224 C 232.178 223.568 232.821 223.431 233 223 C 233.126 222.695 233 222 233 222 C 233 222 233 222 233 222 C 233 222 233 221 233 221 C 233 221 233 221 233 221 C 233 221 233.821 220.431 234 220 C 234.126 219.695 233.924 219.321 234 219 C 234.169 218.281 234.717 217.681 235 217 C 235.399 216.035 235.832 215.03 236 214 C 236.105 213.348 235.747 212.609 236 212 C 236.178 211.568 237 211 237 211 C 237 211 237 211 237 211 C 237 211 237 211 237 211 C 237 211 237 211 237 211 C 237 211 237 211.67 237 212 C 237 212.66 236.848 213.357 237 214 C 237.339 215.436 238.41 216.647 239 218 C 240.127 220.584 240.714 223.49 242 226 C 242.542 227.058 243.462 227.938 244 229 C 245.743 232.446 246.622 236.391 248 240 C 248.633 241.66 249.493 243.296 250 245 C 250.479 246.612 250.356 248.445 251 250 C 251.455 251.099 252.655 251.861 253 253 C 253.191 253.631 252.747 254.39 253 255 C 253.178 255.431 253.821 255.568 254 256 C 254.126 256.304 253.873 256.695 254 257 C 254.178 257.431 255 258 255 258 C 255 258 255 258 255 258 " fill="transparent" stroke="#222" stroke-width="23" stroke-opacity="1" fill-opacity="1" class="" visibility="visible" stroke-linecap="round" stroke-linejoin="round" stroke-miterlimit="4" id="two-34"></path><path d="M 280 194 C 280 194 279.808 195.368 280 196 C 280.689 198.277 282.739 199.981 284 202 C 286.427 205.889 288.707 210.029 291 214 C 293.66 218.608 296.405 223.354 299 228 C 301.015 231.61 302.968 235.398 305 239 C 307.252 242.992 309.665 247.054 312 251 C 313.959 254.312 316.148 257.626 318 261 C 319.065 262.94 320.231 264.923 321 267 C 321.472 268.276 321.449 269.755 322 271 C 322.481 272.088 323.402 272.97 324 274 C 324.37 274.638 324.83 275.281 325 276 C 325.075 276.321 324.873 276.695 325 277 C 325.178 277.431 326 278 326 278 C 326 278 326 278 326 278 C 326 278 326 278 326 278 C 326 278 326 278 326 278 C 326 278 326 277.33 326 277 C 326 276.67 325.873 276.304 326 276 C 326.178 275.568 326.779 275.411 327 275 C 327.793 273.516 327.425 271.581 328 270 C 329.411 266.113 332.085 262.664 334 259 C 336.733 253.767 339.516 248.355 342 243 C 344.114 238.44 345.804 233.521 348 229 C 349.806 225.28 352.085 221.664 354 218 C 355.708 214.729 357.35 211.3 359 208 C 360.32 205.36 361.79 202.692 363 200 C 363.728 198.378 364.271 196.621 365 195 C 365.302 194.326 365.568 193.598 366 193 C 366.272 192.621 366.821 192.431 367 192 C 367.126 191.695 367 191 367 191 C 367 191 367 191 367 191 " fill="transparent" stroke="#222" stroke-width="23" stroke-opacity="1" fill-opacity="1" class="" visibility="visible" stroke-linecap="round" stroke-linejoin="round" stroke-miterlimit="4" id="two-38"></path><path d="M 423 206 C 423 206 423 208.01 423 209 C 423 211.31 423 213.69 423 216 C 423 218.64 423 221.36 423 224 C 423 226.31 423 228.69 423 231 C 423 233.31 423 235.69 423 238 C 423 239.98 423 242.02 423 244 C 423 245.65 423 247.35 423 249 C 423 251.31 423 253.69 423 256 C 423 257.32 423 258.68 423 260 C 423 261.32 423 262.68 423 264 C 423 264.99 423 266.01 423 267 C 423 267.33 423 267.67 423 268 C 423 268.33 423 269 423 269 C 423 269 423 269 423 269 C 423 269 423 267 423 267 C 423 267 423 267 423 267 " fill="transparent" stroke="#222" stroke-width="23" stroke-opacity="1" fill-opacity="1" class="" visibility="visible" stroke-linecap="round" stroke-linejoin="round" stroke-miterlimit="4" id="two-43"></path><path d="M 424 89 C 424 89 424 89.67 424 90 C 424 92.31 424 94.69 424 97 C 424 97.99 424 99.01 424 100 C 424 101.65 424 103.35 424 105 C 424 106.32 424 107.68 424 109 C 424 110.32 424 111.68 424 113 C 424 113.99 424 115.01 424 116 C 424 116.66 424 117.34 424 118 C 424 118.66 424 119.34 424 120 C 424 120.33 424 120.67 424 121 C 424 121.66 424 122.34 424 123 C 424 123.66 424 124.34 424 125 C 424 125.33 424 125.67 424 126 C 424 126.33 424 127 424 127 C 424 127 424 127 424 127 C 424 127 424 127 424 127 C 424 127 424 124 424 124 " fill="transparent" stroke="#222" stroke-width="23" stroke-opacity="1" fill-opacity="1" class="" visibility="visible" stroke-linecap="round" stroke-linejoin="round" stroke-miterlimit="4" id="two-49"></path><path d="M 146 370 C 146 370 145.33 370 145 370 C 143.02 370 140.98 370 139 370 C 136.36 370 133.64 370 131 370 C 128.36 370 125.64 370 123 370 C 118.38 370 113.62 370 109 370 C 107.68 370 106.32 370 105 370 C 103.68 370 102.32 370 101 370 C 100.01 370 98.99 370 98 370 C 97.34 370 96.66 370 96 370 C 95.67 370 95.304 369.873 95 370 C 94.568 370.178 94.33 370.67 94 371 C 93.67 371.33 93.295 371.639 93 372 C 92.245 372.92 91.754 374.079 91 375 C 89.816 376.443 88.223 377.589 87 379 C 85.918 380.246 84.952 381.653 84 383 C 82.625 384.942 81.32 387.02 80 389 C 78.679 390.98 77.194 392.941 76 395 C 74.888 396.914 73.718 398.906 73 401 C 72.453 402.591 72.479 404.387 72 406 C 71.493 407.703 70.506 409.296 70 411 C 69.52 412.612 69.165 414.325 69 416 C 68.869 417.313 69 418.68 69 420 C 69 421.65 69 423.35 69 425 C 69 425.99 69 427.01 69 428 C 69 428.99 68.772 430.036 69 431 C 69.169 431.718 69.478 432.478 70 433 C 70.521 433.521 71.401 433.568 72 434 C 72.757 434.545 73.242 435.454 74 436 C 74.598 436.431 75.353 436.644 76 437 C 77.686 437.925 79.313 439.074 81 440 C 81.646 440.355 82.361 440.629 83 441 C 84.029 441.597 84.97 442.402 86 443 C 87.914 444.111 89.98 445.093 92 446 C 93.621 446.728 95.254 447.663 97 448 C 99.268 448.436 101.69 448 104 448 C 105.32 448 106.68 448 108 448 C 109.98 448 112.026 448.163 114 448 C 116 447.834 118.051 447.483 120 447 C 122.025 446.496 124.071 445.798 126 445 C 128.045 444.152 130.02 442.99 132 442 C 133.98 441.01 135.991 439.931 138 439 C 140.279 437.942 142.824 437.257 145 436 C 146.428 435.174 147.51 433.709 149 433 C 150.228 432.415 151.723 432.472 153 432 C 153.692 431.743 155 431 155 431 C 155 431 155 431 155 431 C 155 431 156 430 156 430 C 156 430 156 430 156 430 " fill="transparent" stroke="#222" stroke-width="23" stroke-opacity="1" fill-opacity="1" class="" visibility="visible" stroke-linecap="round" stroke-linejoin="round" stroke-miterlimit="4" id="two-56"></path><path d="M 243 455 C 243 455 243 455 243 455 C 243 455 241.66 455 241 455 C 240.34 455 239.66 455 239 455 C 238.01 455 236.99 455 236 455 C 235.01 455 233.99 455 233 455 C 232.34 455 231.655 455.08 231 455 C 229.649 454.833 227 454 227 454 C 227 454 227 454 227 454 C 227 454 224.818 452.135 224 451 C 223.137 449.802 222.604 448.346 222 447 C 221.271 445.378 220.827 443.572 220 442 C 219.446 440.946 218.414 440.115 218 439 C 217.072 436.506 217.488 433.615 217 431 C 216.75 429.662 216.298 428.327 216 427 C 215.63 425.358 215.284 423.658 215 422 C 214.606 419.7 214.165 417.327 214 415 C 213.859 413.024 214 410.98 214 409 C 214 406.69 214 404.31 214 402 C 214 400.35 214 398.65 214 397 C 214 395.02 213.804 392.97 214 391 C 214.165 389.325 214.52 387.612 215 386 C 215.506 384.296 216.388 382.668 217 381 C 217.358 380.02 217.6 378.964 218 378 C 218.564 376.636 219.435 375.363 220 374 C 220.399 373.035 220.451 371.887 221 371 C 221.736 369.809 222.917 368.887 224 368 C 224.92 367.245 225.946 366.553 227 366 C 228.572 365.172 230.296 364.506 232 364 C 233.612 363.52 235.325 363.165 237 363 C 238.97 362.804 241.02 363 243 363 C 244.65 363 246.35 363 248 363 C 249.98 363 252.029 362.804 254 363 C 255.674 363.165 257.408 363.453 259 364 C 260.395 364.478 261.843 365.083 263 366 C 265.02 367.6 266.589 369.842 268 372 C 268.807 373.235 269.395 374.653 270 376 C 270.728 377.621 271.453 379.309 272 381 C 272.418 382.294 272.738 383.664 273 385 C 273.448 387.289 273.834 389.672 274 392 C 274.116 393.645 274 395.35 274 397 C 274 398.32 274 399.68 274 401 C 274 402.32 274 403.68 274 405 C 274 405.99 274 407.01 274 408 C 274 408.99 274.286 410.052 274 411 C 273.655 412.138 272.687 413.028 272 414 C 271.047 415.346 269.92 416.63 269 418 C 267.926 419.596 267.184 421.483 266 423 C 265.138 424.103 263.99 425.01 263 426 C 262.01 426.99 260.99 428.01 260 429 C 259.01 429.99 257.99 431.01 257 432 C 256.01 432.99 254.99 434.01 254 435 C 253.34 435.66 252.757 436.454 252 437 C 251.401 437.431 250.598 437.568 250 438 C 249.621 438.272 249.378 438.727 249 439 C 248.401 439.431 247.598 439.568 247 440 C 246.621 440.272 246.378 440.727 246 441 C 245.401 441.431 244.66 441.67 244 442 C 243.34 442.33 242.598 442.568 242 443 C 241.621 443.272 241.431 443.821 241 444 C 240.695 444.126 240.233 443.766 240 444 C 239.766 444.233 240 445 240 445 " fill="transparent" stroke="#222" stroke-width="23" stroke-opacity="1" fill-opacity="1" class="" visibility="visible" stroke-linecap="round" stroke-linejoin="round" stroke-miterlimit="4" id="two-64"></path><path d="M 298 359 C 298 359 298 359 298 359 C 298 359 298 362.35 298 364 C 298 368.29 298 372.71 298 377 C 298 381.29 298 385.71 298 390 C 298 393.3 298 396.7 298 400 C 298 403.96 298 408.04 298 412 C 298 414.64 298 417.36 298 420 C 298 421.98 298 424.02 298 426 C 298 426.66 298 427.34 298 428 C 298 428.66 297.34 430 298 430 C 298.33 430 298 429.33 298 429 C 298 428.67 298 428 298 428 C 298 428 298 428 298 428 C 298 428 298 427.33 298 427 C 298 426.67 298 426 298 426 C 298 426 298 426 298 426 C 298 426 298 426 298 426 C 298 426 298 426.67 298 427 C 298 427.33 298 428 298 428 C 298 428 298 428 298 428 C 298 428 298 429 298 429 C 298 429 298 429 298 429 C 298 429 298 429.67 298 430 C 298 430.66 298 431.34 298 432 C 298 432.99 298 434.01 298 435 C 298 435.99 298 437.01 298 438 C 298 438.66 298 439.34 298 440 C 298 440.66 297.894 441.348 298 442 C 298.167 443.03 298.832 443.969 299 445 C 299.052 445.325 299 445.67 299 446 C 299 446.66 299 447.34 299 448 C 299 448.66 299 449.34 299 450 C 299 450.33 299 450.67 299 451 C 299 451.33 299 452 299 452 C 299 452 299 452 299 452 C 299 452 299 452.67 299 453 C 299 453.33 299 453.67 299 454 C 299 454.33 299 455 299 455 C 299 455 299 455 299 455 C 299 455 299 456 299 456 C 299 456 299 456 299 456 C 299 456 299 456 299 456 C 299 456 299 455 299 455 C 299 455 299 455 299 455 C 299 455 299 455 299 455 C 299 455 299 455 299 455 C 299 455 299 454 299 454 C 299 454 299 454 299 454 C 299 454 299 454 299 454 C 299 454 299 454 299 454 C 299 454 299 453 299 453 C 299 453 299 453 299 453 C 299 453 299 453 299 453 C 299 453 299 452 299 452 C 299 452 299 452 299 452 C 299 452 299 452 299 452 C 299 452 299 451.33 299 451 C 299 450.67 299 450.33 299 450 C 299 449.01 299 447.99 299 447 C 299 446.01 299 444.99 299 444 C 299 442.68 299 441.32 299 440 C 299 438.02 299 435.98 299 434 C 299 432.02 298.836 429.973 299 428 C 299.165 425.999 299.834 424 300 422 C 300.19 419.697 299.717 417.292 300 415 C 300.332 412.299 301.5 409.674 302 407 C 302.488 404.384 302.616 401.632 303 399 C 303.289 397.013 303.516 394.948 304 393 C 304.503 390.974 305.303 388.967 306 387 C 306.94 384.342 307.981 381.629 309 379 C 309.642 377.342 310.021 375.483 311 374 C 311.77 372.831 313.181 372.135 314 371 C 314.431 370.401 314.568 369.598 315 369 C 315.818 367.864 317.01 366.99 318 366 C 318.33 365.67 318.568 365.178 319 365 C 319.609 364.747 320.34 365 321 365 C 321.99 365 323.01 365 324 365 C 324.99 365 326.01 365 327 365 C 327.99 365 329.01 365 330 365 C 330.99 365 332.01 365 333 365 C 333.66 365 334.34 365 335 365 C 335.66 365 336.39 364.747 337 365 C 337.862 365.357 338.408 366.278 339 367 C 339.754 367.92 340.245 369.079 341 370 C 341.887 371.082 343.082 371.942 344 373 C 345.081 374.246 346.132 375.596 347 377 C 347.775 378.255 348.34 379.68 349 381 C 349.99 382.98 351.152 384.954 352 387 C 352.798 388.928 353.464 390.982 354 393 C 354.431 394.626 354.67 396.35 355 398 C 355.33 399.65 355.67 401.35 356 403 C 356.33 404.65 356.67 406.35 357 408 C 357.33 409.65 357.568 411.373 358 413 C 358.267 414.008 358.832 414.969 359 416 C 359.264 417.628 358.798 419.362 359 421 C 359.166 422.35 359.738 423.664 360 425 C 360.448 427.289 360.551 429.71 361 432 C 361.261 433.335 361.722 434.667 362 436 C 362.408 437.965 362.834 439.999 363 442 C 363.136 443.644 363 445.35 363 447 C 363 448.32 362.788 449.697 363 451 C 363.167 452.03 363.832 452.969 364 454 C 364.105 454.651 364 456 364 456 C 364 456 364 456 364 456 C 364 456 364 457 364 457 " fill="transparent" stroke="#222" stroke-width="23" stroke-opacity="1" fill-opacity="1" class="" visibility="visible" stroke-linecap="round" stroke-linejoin="round" stroke-miterlimit="4" id="two-73"></path><path d="M 450 389 C 450 389 450 389 450 389 C 450 389 450 389 450 389 C 450 389 447.276 388.472 446 388 C 444.615 387.487 443.363 386.564 442 386 C 441.035 385.6 439.99 385.33 439 385 C 438.01 384.67 437.008 384.267 436 384 C 434.373 383.568 432.674 383.165 431 383 C 429.686 382.869 428.32 383 427 383 C 425.68 383 424.32 383 423 383 C 422.01 383 420.99 383 420 383 C 419.01 383 417.99 383 417 383 C 416.34 383 415.651 382.894 415 383 C 413.969 383.167 412.887 383.451 412 384 C 410.809 384.736 409.99 386.01 409 387 C 408.34 387.66 407.66 388.34 407 389 C 406.01 389.99 404.887 390.917 404 392 C 403.245 392.92 402.522 393.931 402 395 C 401.541 395.937 401.33 397.01 401 398 C 400.67 398.99 400.33 400.01 400 401 C 399.67 401.99 399.33 403.01 399 404 C 398.67 404.99 398.167 405.969 398 407 C 397.841 407.977 398 409.01 398 410 C 398 411.32 398 412.68 398 414 C 398 414.99 398 416.01 398 417 C 398 417.99 398 419.01 398 420 C 398 420.99 397.672 422.065 398 423 C 398.699 424.993 400.59 426.425 402 428 C 404.489 430.781 407.057 433.702 410 436 C 411.516 437.184 413.276 438.144 415 439 C 416.592 439.789 418.331 440.388 420 441 C 421.959 441.717 424.049 442.258 426 443 C 428.349 443.893 430.599 445.254 433 446 C 434.606 446.499 436.387 446.52 438 447 C 439.703 447.506 441.288 448.521 443 449 C 444.933 449.54 447.133 449.261 449 450 C 450.106 450.437 450.931 451.477 452 452 C 452.937 452.458 454.112 452.451 455 453 C 455.396 453.245 455.67 453.67 456 454 C 456.33 454.33 456.568 454.821 457 455 C 457.304 455.126 458 455 458 455 C 458 455 458 455 458 455 C 458 455 458 456 458 456 C 458 456 458 456 458 456 C 458 456 458 456 458 456 C 458 456 458 457 458 457 C 458 457 458 457 458 457 C 458 457 458 458 458 458 C 458 458 458 458 458 458 C 458 458 458.233 458.766 458 459 C 457.766 459.233 457.315 458.904 457 459 C 455.861 459.344 455.029 460.402 454 461 C 453.361 461.37 452.681 461.717 452 462 C 451.035 462.399 449.964 462.6 449 463 C 448.318 463.282 447.66 463.67 447 464 C 446.34 464.33 445.718 464.83 445 465 C 444.357 465.151 443.631 464.808 443 465 C 441.861 465.344 441.068 466.477 440 467 C 439.062 467.458 437.99 467.67 437 468 C 436.01 468.33 435.03 468.832 434 469 C 433.022 469.158 431.982 468.879 431 469 C 429.649 469.166 428.306 469.619 427 470 C 425.998 470.291 425.001 470.708 424 471 C 422.693 471.38 421.35 471.833 420 472 C 419.344 472.08 418.642 471.848 418 472 C 417.281 472.169 416.718 472.83 416 473 C 415.357 473.151 414.66 473 414 473 C 413.67 473 413.304 472.873 413 473 C 412.568 473.178 412.431 473.821 412 474 C 411.695 474.126 411.33 474 411 474 C 410.67 474 410.33 474 410 474 C 409.67 474 409.33 474 409 474 C 408.67 474 408 474 408 474 C 408 474 408 474 408 474 C 408 474 408 474 408 474 " fill="transparent" stroke="#222" stroke-width="23" stroke-opacity="1" fill-opacity="1" class="" visibility="visible" stroke-linecap="round" stroke-linejoin="round" stroke-miterlimit="4" id="two-83"></path></svg>